<?xml version="1.0" standalone="no"?>
<!DOCTYPE svg PUBLIC "-//W3C//DTD SVG 20010904//EN"
 "http://www.w3.org/TR/2001/REC-SVG-20010904/DTD/svg10.dtd">
<svg version="1.0" xmlns="http://www.w3.org/2000/svg"
 width="291.000000pt" height="342.000000pt" viewBox="0 0 291.000000 342.000000"
 preserveAspectRatio="xMidYMid meet">

<g transform="translate(0.000000,342.000000) scale(0.100000,-0.100000)"
fill="#000000" stroke="none">
<path d="M1305 3275 c-60 -30 -207 -101 -325 -159 -118 -58 -349 -170 -513
-250 -163 -79 -297 -150 -297 -157 0 -32 54 -270 90 -396 70 -249 172 -495
302 -728 103 -185 189 -307 345 -491 93 -111 277 -294 296 -294 4 0 7 216 7
479 0 530 5 488 -67 532 -138 82 -236 218 -264 366 -15 79 -7 212 16 278 59
170 205 306 384 359 77 22 219 21 303 -3 179 -51 320 -184 380 -359 32 -95 32
-249 -1 -345 -42 -123 -150 -252 -258 -308 -25 -13 -42 -29 -45 -43 -1 -11 -1
-234 2 -495 l5 -473 130 133 c483 495 763 1053 889 1772 l7 38 -193 93 c-106
51 -256 123 -333 159 -77 35 -219 103 -315 149 -276 134 -415 198 -426 197 -5
0 -58 -25 -119 -54z m167 -44 c24 -10 137 -64 251 -120 115 -56 210 -101 212
-101 2 0 165 -78 479 -229 93 -44 172 -81 177 -81 18 0 19 -24 4 -102 -109
-575 -373 -1108 -762 -1536 -41 -45 -81 -82 -89 -82 -12 0 -14 57 -14 378 l0
377 38 21 c105 61 205 185 254 316 39 106 49 248 24 348 -65 260 -273 446
-535 479 -377 48 -711 -244 -711 -619 0 -213 118 -422 297 -527 l43 -25 0
-373 c0 -255 -3 -376 -11 -380 -20 -13 -206 198 -342 388 -240 335 -421 750
-517 1184 -32 146 -42 130 128 211 81 39 233 112 337 162 105 51 291 141 415
201 124 60 232 113 240 118 22 14 34 13 82 -8z"/>
<path d="M1350 2739 c-129 -22 -271 -123 -333 -237 -96 -177 -67 -395 73 -541
50 -53 133 -105 191 -121 l36 -10 6 -417 c5 -358 4 -419 -8 -433 -19 -21 2
-55 28 -44 18 7 24 44 7 44 -7 0 -10 147 -10 420 l0 420 30 0 30 0 0 -415 c0
-228 3 -415 8 -415 4 0 6 187 4 415 l-2 415 30 0 30 0 0 -505 c0 -278 -3 -505
-6 -505 -8 0 -77 53 -90 69 -6 8 -16 11 -23 7 -16 -10 -9 -29 11 -32 9 -1 37
-16 62 -33 24 -17 47 -31 50 -31 3 0 6 232 6 515 0 438 2 515 14 515 8 0 21 3
30 6 14 6 16 -35 16 -413 0 -299 -3 -422 -11 -430 -17 -17 -3 -43 21 -43 26 0
36 25 20 45 -9 11 -14 65 -16 168 l-4 152 20 -25 c15 -19 20 -41 20 -92 0 -39
-4 -68 -10 -68 -5 0 -10 -11 -10 -25 0 -21 5 -25 30 -25 25 0 30 4 30 25 0 16
-6 25 -15 25 -12 0 -15 15 -15 71 0 58 -4 76 -25 107 -24 36 -25 42 -25 206 0
149 2 167 15 156 17 -14 22 -145 5 -155 -5 -3 -10 -15 -10 -26 0 -14 7 -19 30
-19 22 0 30 5 30 18 0 10 -4 22 -10 28 -5 5 -12 40 -15 78 -3 47 -11 76 -25
93 -27 35 -29 151 -2 159 51 15 145 70 186 109 220 211 188 562 -67 726 -96
62 -224 88 -337 68z m232 -131 c266 -122 292 -488 44 -637 -192 -116 -433 -46
-531 152 -48 100 -43 246 12 336 26 41 84 101 124 126 95 61 246 71 351 23z
m23 -1117 c7 -12 -12 -24 -25 -16 -11 7 -4 25 10 25 5 0 11 -4 15 -9z"/>
<path d="M1345 2451 c-77 -36 -115 -95 -115 -180 0 -108 88 -194 198 -194 212
0 279 277 90 374 -47 24 -121 24 -173 0z"/>
<path d="M1400 960 c0 -5 5 -10 10 -10 6 0 10 5 10 10 0 6 -4 10 -10 10 -5 0
-10 -4 -10 -10z"/>
<path d="M1910 565 c0 -27 3 -46 6 -42 3 3 6 22 6 42 0 20 -3 39 -6 42 -3 4
-6 -15 -6 -42z"/>
<path d="M1953 560 c0 -30 2 -43 4 -27 2 15 2 39 0 55 -2 15 -4 2 -4 -28z"/>
<path d="M2072 590 c0 -14 2 -19 5 -12 2 6 2 18 0 25 -3 6 -5 1 -5 -13z"/>
<path d="M2130 600 c0 -5 5 -10 10 -10 6 0 10 5 10 10 0 6 -4 10 -10 10 -5 0
-10 -4 -10 -10z"/>
<path d="M2473 560 c0 -30 2 -43 4 -27 2 15 2 39 0 55 -2 15 -4 2 -4 -28z"/>
<path d="M2697 603 c-10 -9 -9 -83 1 -83 4 0 9 20 10 45 2 46 0 50 -11 38z"/>
<path d="M2735 600 c-3 -5 -1 -10 4 -10 6 0 11 5 11 10 0 6 -2 10 -4 10 -3 0
-8 -4 -11 -10z"/>
<path d="M634 587 c-2 -7 2 -29 11 -48 16 -33 16 -33 10 -4 -3 17 -6 38 -6 48
0 20 -8 22 -15 4z"/>
<path d="M670 580 c0 -19 3 -21 12 -12 9 9 9 15 0 24 -9 9 -12 7 -12 -12z"/>
<path d="M836 585 c-3 -8 -1 -15 4 -15 6 0 10 7 10 15 0 8 -2 15 -4 15 -2 0
-6 -7 -10 -15z"/>
<path d="M890 555 c0 -25 3 -45 8 -45 4 0 7 20 7 45 0 25 -3 45 -7 45 -5 0 -8
-20 -8 -45z"/>
<path d="M987 593 c-11 -10 -8 -71 3 -78 6 -4 10 12 10 39 0 47 -2 51 -13 39z"/>
<path d="M1067 580 c-3 -11 -1 -23 4 -26 5 -3 9 6 9 20 0 31 -6 34 -13 6z"/>
<path d="M1102 575 c0 -16 2 -22 5 -12 2 9 2 23 0 30 -3 6 -5 -1 -5 -18z"/>
<path d="M1130 582 c0 -12 4 -22 9 -22 10 0 9 26 -2 36 -4 4 -7 -2 -7 -14z"/>
<path d="M1168 563 c5 -59 10 -63 11 -10 1 26 -3 47 -7 47 -4 0 -6 -17 -4 -37z"/>
<path d="M1340 585 c0 -8 2 -15 4 -15 2 0 6 7 10 15 3 8 1 15 -4 15 -6 0 -10
-7 -10 -15z"/>
<path d="M1620 590 c0 -5 5 -10 10 -10 6 0 10 5 10 10 0 6 -4 10 -10 10 -5 0
-10 -4 -10 -10z"/>
<path d="M1694 586 c-3 -8 -4 -29 -2 -48 3 -29 4 -27 8 15 5 48 3 58 -6 33z"/>
<path d="M1743 555 c0 -27 2 -38 4 -22 2 15 2 37 0 50 -2 12 -4 0 -4 -28z"/>
<path d="M1832 575 c0 -16 2 -22 5 -12 2 9 2 23 0 30 -3 6 -5 -1 -5 -18z"/>
<path d="M1860 579 c0 -11 5 -17 10 -14 6 3 10 13 10 21 0 8 -4 14 -10 14 -5
0 -10 -9 -10 -21z"/>
<path d="M2016 583 c-6 -14 -5 -15 5 -6 7 7 10 15 7 18 -3 3 -9 -2 -12 -12z"/>
<path d="M2163 555 c0 -27 2 -38 4 -22 2 15 2 37 0 50 -2 12 -4 0 -4 -28z"/>
<path d="M2270 590 c0 -5 5 -10 10 -10 6 0 10 5 10 10 0 6 -4 10 -10 10 -5 0
-10 -4 -10 -10z"/>
<path d="M2537 593 c-3 -5 -1 -17 4 -28 7 -17 8 -17 8 8 1 27 -4 34 -12 20z"/>
<path d="M2570 584 c0 -8 5 -12 10 -9 6 4 8 11 5 16 -9 14 -15 11 -15 -7z"/>
<path d="M2610 575 c0 -14 5 -25 10 -25 6 0 10 11 10 25 0 14 -4 25 -10 25 -5
0 -10 -11 -10 -25z"/>
<path d="M2651 584 c0 -11 3 -14 6 -6 3 7 2 16 -1 19 -3 4 -6 -2 -5 -13z"/>
<path d="M744 567 c3 -10 6 -27 6 -38 0 -10 5 -19 10 -19 15 0 11 33 -7 55
-14 18 -15 18 -9 2z"/>
<path d="M1275 550 c3 -41 15 -51 15 -12 0 17 -4 33 -9 36 -5 3 -8 -8 -6 -24z"/>
<path d="M1447 573 c-11 -10 -8 -53 3 -53 6 0 10 14 10 30 0 31 -2 35 -13 23z"/>
<path d="M1482 550 c0 -19 2 -27 5 -17 2 9 2 25 0 35 -3 9 -5 1 -5 -18z"/>
<path d="M1510 556 c0 -14 5 -28 10 -31 6 -3 10 5 10 19 0 14 -4 28 -10 31 -6
3 -10 -5 -10 -19z"/>
<path d="M1552 555 c0 -16 2 -22 5 -12 2 9 2 23 0 30 -3 6 -5 -1 -5 -18z"/>
<path d="M2363 545 c0 -22 2 -30 4 -17 2 12 2 30 0 40 -3 9 -5 -1 -4 -23z"/>
<path d="M2409 548 c4 -28 6 -29 9 -9 2 13 0 27 -5 32 -6 6 -7 -3 -4 -23z"/>
<path d="M1232 540 c0 -19 2 -27 5 -17 2 9 2 25 0 35 -3 9 -5 1 -5 -18z"/>
<path d="M2030 545 c0 -14 4 -25 9 -25 4 0 6 11 3 25 -2 14 -6 25 -8 25 -2 0
-4 -11 -4 -25z"/>
<path d="M2090 545 c0 -14 5 -25 10 -25 6 0 10 11 10 25 0 14 -4 25 -10 25 -5
0 -10 -11 -10 -25z"/>
<path d="M712 535 c0 -16 2 -22 5 -12 2 9 2 23 0 30 -3 6 -5 -1 -5 -18z"/>
<path d="M850 534 c0 -14 4 -23 9 -19 11 6 10 45 -1 45 -4 0 -8 -12 -8 -26z"/>
<path d="M1353 540 c-1 -11 2 -22 8 -25 5 -4 9 5 9 19 0 30 -15 35 -17 6z"/>
<path d="M1590 535 c0 -14 2 -25 4 -25 2 0 6 11 8 25 3 14 1 25 -3 25 -5 0 -9
-11 -9 -25z"/>
<path d="M2270 540 c0 -11 5 -20 10 -20 6 0 10 9 10 20 0 11 -4 20 -10 20 -5
0 -10 -9 -10 -20z"/>
<path d="M2322 535 c0 -16 2 -22 5 -12 2 9 2 23 0 30 -3 6 -5 -1 -5 -18z"/>
<path d="M922 530 c0 -14 2 -19 5 -12 2 6 2 18 0 25 -3 6 -5 1 -5 -13z"/>
<path d="M1831 524 c0 -11 3 -14 6 -6 3 7 2 16 -1 19 -3 4 -6 -2 -5 -13z"/>
<path d="M1866 525 c4 -8 8 -15 10 -15 2 0 4 7 4 15 0 8 -4 15 -10 15 -5 0 -7
-7 -4 -15z"/>
<path d="M2570 530 c0 -5 5 -10 10 -10 6 0 10 5 10 10 0 6 -4 10 -10 10 -5 0
-10 -4 -10 -10z"/>
<path d="M2610 530 c0 -5 5 -10 10 -10 6 0 10 5 10 10 0 6 -4 10 -10 10 -5 0
-10 -4 -10 -10z"/>
<path d="M1635 520 c-3 -5 -1 -10 4 -10 6 0 11 5 11 10 0 6 -2 10 -4 10 -3 0
-8 -4 -11 -10z"/>
<path d="M666 434 c-8 -21 -8 -24 3 -24 5 0 11 9 14 20 6 24 -8 27 -17 4z"/>
<path d="M1171 415 c1 -33 2 -36 8 -15 l7 25 12 -22 c18 -33 32 -28 31 10 -1
26 -3 27 -6 8 l-5 -24 -24 29 -23 29 0 -40z"/>
<path d="M1531 420 c-1 -29 3 -36 18 -36 12 0 17 6 13 18 -2 10 -8 16 -12 13
-5 -3 -11 5 -13 17 -3 15 -5 11 -6 -12z"/>
<path d="M1614 438 c-4 -6 0 -16 8 -22 8 -6 17 -18 21 -26 4 -12 6 -11 6 3 1
10 -6 20 -14 23 -20 8 -19 21 3 27 15 4 15 5 0 6 -9 0 -20 -4 -24 -11z"/>
<path d="M2050 440 c0 -5 5 -10 10 -10 6 0 10 5 10 10 0 6 -4 10 -10 10 -5 0
-10 -4 -10 -10z"/>
<path d="M2140 441 c0 -5 -9 -11 -20 -14 -20 -5 -29 -47 -11 -47 5 0 7 9 4 20
-4 14 0 20 12 20 12 0 16 -6 12 -20 -3 -11 -1 -20 4 -20 5 0 9 16 9 35 0 19
-2 35 -5 35 -3 0 -5 -4 -5 -9z"/>
<path d="M573 405 c0 -22 2 -30 4 -17 2 12 2 30 0 40 -3 9 -5 -1 -4 -23z"/>
<path d="M950 412 c0 -17 3 -33 8 -35 9 -6 8 50 -1 60 -4 3 -7 -8 -7 -25z"/>
<path d="M1307 433 c-2 -5 -1 -19 4 -33 7 -23 7 -23 8 8 1 31 -3 40 -12 25z"/>
<path d="M1910 417 c0 -14 4 -28 8 -31 9 -5 8 41 -1 51 -4 3 -7 -5 -7 -20z"/>
<path d="M2430 412 c0 -18 4 -32 8 -32 9 0 8 47 -1 57 -4 3 -7 -8 -7 -25z"/>
<path d="M2560 430 c0 -5 5 -10 10 -10 6 0 10 5 10 10 0 6 -4 10 -10 10 -5 0
-10 -4 -10 -10z"/>
<path d="M701 411 c-16 -29 14 -51 37 -28 13 13 13 19 4 29 -9 9 -12 7 -12
-10 0 -12 -4 -22 -8 -22 -17 0 -21 13 -11 31 5 11 7 19 5 19 -3 0 -10 -9 -15
-19z"/>
<path d="M828 404 c5 -29 8 -30 15 -5 3 11 -1 22 -8 24 -8 4 -10 -3 -7 -19z"/>
<path d="M861 425 c1 -19 18 -51 18 -35 0 8 -4 22 -9 30 -5 8 -9 11 -9 5z"/>
<path d="M917 406 c5 -25 -10 -37 -20 -16 -3 6 -4 5 -3 -2 2 -7 9 -13 17 -13
17 0 25 33 11 47 -6 6 -8 0 -5 -16z"/>
<path d="M1048 414 c11 -21 7 -34 -10 -34 -4 0 -9 10 -9 23 -1 18 -2 19 -6 3
-8 -29 14 -43 34 -23 16 16 16 18 -1 35 -18 16 -18 16 -8 -4z"/>
<path d="M1113 406 c7 -14 13 -23 15 -21 7 6 -9 45 -18 45 -4 0 -3 -11 3 -24z"/>
<path d="M1273 415 c0 -8 4 -15 9 -15 4 0 8 4 8 9 0 6 -4 12 -8 15 -5 3 -9 -1
-9 -9z"/>
<path d="M1437 423 c-10 -9 -9 -41 2 -47 4 -3 6 6 3 21 -4 19 -1 24 9 21 8 -3
13 -13 12 -23 -1 -12 2 -14 10 -6 7 7 6 15 -3 26 -14 16 -23 19 -33 8z"/>
<path d="M1494 415 c-3 -8 -4 -20 -1 -27 3 -7 6 -3 6 9 1 12 7 24 14 26 9 4 9
6 -1 6 -7 1 -15 -6 -18 -14z"/>
<path d="M1677 424 c-4 -4 -7 -17 -6 -28 0 -12 3 -15 6 -8 2 6 11 12 20 12 8
0 13 5 11 12 -5 14 -22 21 -31 12z"/>
<path d="M1730 415 c-11 -13 -11 -18 0 -28 10 -10 12 -9 7 5 -4 11 0 21 11 27
9 6 12 11 6 11 -6 0 -17 -7 -24 -15z"/>
<path d="M1780 405 c0 -14 4 -25 9 -25 4 0 6 11 3 25 -2 14 -6 25 -8 25 -2 0
-4 -11 -4 -25z"/>
<path d="M1847 423 c-4 -3 -7 -16 -6 -27 0 -19 1 -19 10 3 10 24 8 36 -4 24z"/>
<path d="M1952 420 c0 -8 3 -26 7 -40 7 -24 7 -24 20 8 8 18 11 35 7 39 -3 3
-6 -1 -6 -10 0 -22 -17 -22 -23 1 -3 11 -5 12 -5 2z"/>
<path d="M2171 403 c2 -24 2 -25 6 -5 2 12 8 22 13 22 5 0 11 -10 13 -22 4
-20 4 -19 6 5 1 21 -4 27 -19 27 -15 0 -20 -6 -19 -27z"/>
<path d="M2228 405 c2 -14 6 -25 8 -25 2 0 4 11 4 25 0 14 -4 25 -9 25 -4 0
-6 -11 -3 -25z"/>
<path d="M2262 405 c0 -16 2 -22 5 -12 2 9 2 23 0 30 -3 6 -5 -1 -5 -18z"/>
<path d="M2291 403 c2 -23 2 -24 6 -5 2 12 9 22 14 22 5 0 14 -10 19 -22 10
-23 10 -23 7 2 -1 17 -9 26 -24 28 -20 3 -23 -1 -22 -25z"/>
<path d="M2386 422 c-2 -4 2 -16 10 -27 8 -10 14 -14 14 -8 0 7 -5 15 -10 18
-6 4 -8 11 -5 16 4 5 4 9 1 9 -3 0 -7 -3 -10 -8z"/>
<path d="M2470 405 c0 -14 2 -25 4 -25 2 0 6 11 8 25 3 14 1 25 -3 25 -5 0 -9
-11 -9 -25z"/>
<path d="M2532 408 c1 -16 6 -28 10 -28 11 0 10 22 -2 40 -8 11 -9 9 -8 -12z"/>
<path d="M2633 414 c-3 -8 -1 -20 5 -26 8 -8 9 -5 5 11 -4 15 -1 21 12 21 13
0 16 -6 12 -21 -4 -16 -3 -19 5 -11 14 14 3 42 -17 42 -9 0 -18 -7 -22 -16z"/>
<path d="M2701 403 c2 -24 2 -25 6 -5 2 12 8 22 13 22 5 0 11 -10 13 -22 4
-20 4 -19 6 5 1 21 -4 27 -19 27 -15 0 -20 -6 -19 -27z"/>
<path d="M602 395 c0 -16 2 -22 5 -12 2 9 2 23 0 30 -3 6 -5 -1 -5 -18z"/>
<path d="M630 402 c0 -12 4 -22 9 -22 10 0 9 26 -2 36 -4 4 -7 -2 -7 -14z"/>
<path d="M760 400 c0 -11 2 -20 4 -20 2 0 6 9 9 20 3 11 1 20 -4 20 -5 0 -9
-9 -9 -20z"/>
<path d="M802 395 c0 -16 2 -22 5 -12 2 9 2 23 0 30 -3 6 -5 -1 -5 -18z"/>
<path d="M992 400 c0 -14 2 -19 5 -12 2 6 2 18 0 25 -3 6 -5 1 -5 -13z"/>
<path d="M1082 400 c0 -14 2 -19 5 -12 2 6 2 18 0 25 -3 6 -5 1 -5 -13z"/>
<path d="M1245 410 c-8 -13 12 -40 29 -40 6 0 3 5 -6 11 -10 5 -15 16 -12 24
7 17 -2 20 -11 5z"/>
<path d="M1361 404 c-18 -21 -6 -30 14 -11 8 9 15 18 15 21 0 11 -15 5 -29
-10z"/>
<path d="M1396 404 c-4 -9 -4 -19 -1 -22 2 -3 7 3 11 12 4 9 4 19 1 22 -2 3
-7 -3 -11 -12z"/>
<path d="M1812 400 c0 -14 2 -19 5 -12 2 6 2 18 0 25 -3 6 -5 1 -5 -13z"/>
<path d="M1882 400 c0 -14 2 -19 5 -12 2 6 2 18 0 25 -3 6 -5 1 -5 -13z"/>
<path d="M2066 411 c-3 -5 1 -14 8 -20 12 -10 13 -8 9 8 -6 23 -9 25 -17 12z"/>
<path d="M2602 400 c0 -14 2 -19 5 -12 2 6 2 18 0 25 -3 6 -5 1 -5 -13z"/>
<path d="M2505 401 c-3 -5 -2 -12 3 -15 5 -3 9 1 9 9 0 17 -3 19 -12 6z"/>
<path d="M2571 394 c0 -11 3 -14 6 -6 3 7 2 16 -1 19 -3 4 -6 -2 -5 -13z"/>
<path d="M335 300 c-55 -55 -105 -99 -112 -98 -24 6 -152 137 -155 160 -3 26
-32 36 -53 18 -19 -16 -2 -50 24 -50 11 0 54 -34 98 -75 43 -41 83 -75 88 -75
6 0 57 47 115 105 58 58 108 104 112 103 23 -9 218 -203 216 -215 -2 -9 5 -20
14 -27 14 -8 21 -7 34 6 15 14 15 20 4 33 -7 9 -19 14 -25 11 -12 -4 -105 82
-105 96 0 4 436 6 969 5 642 -1 967 1 965 8 -3 7 -337 9 -982 7 l-979 -2 -44
45 c-24 25 -53 45 -64 45 -13 0 -59 -39 -120 -100z m-275 60 c0 -13 -7 -20
-20 -20 -13 0 -20 7 -20 20 0 13 7 20 20 20 13 0 20 -7 20 -20z"/>
<path d="M2530 336 c0 -2 9 -6 20 -9 11 -3 18 -1 14 4 -5 9 -34 13 -34 5z"/>
<path d="M2687 333 c-4 -3 -7 -11 -7 -17 0 -6 4 -5 9 3 11 18 41 7 41 -15 0
-12 -7 -15 -26 -11 -16 3 -22 1 -16 -5 15 -15 46 -5 50 16 5 26 -33 48 -51 29z"/>
<path d="M2700 310 c0 -5 5 -10 10 -10 6 0 10 5 10 10 0 6 -4 10 -10 10 -5 0
-10 -4 -10 -10z"/>
<path d="M2556 295 c-11 -8 -15 -15 -9 -15 6 0 16 7 23 15 16 19 11 19 -14 0z"/>
</g>
</svg>
